<?xml version="1.0" standalone="no"?>
<!DOCTYPE svg PUBLIC "-//W3C//DTD SVG 20010904//EN"
 "http://www.w3.org/TR/2001/REC-SVG-20010904/DTD/svg10.dtd">
<svg version="1.0" xmlns="http://www.w3.org/2000/svg"
 width="341.000000pt" height="144.000000pt" viewBox="0 0 341.000000 144.000000"
 preserveAspectRatio="xMidYMid meet">

<g transform="translate(0.000000,144.000000) scale(0.100000,-0.100000)"
fill="#000000" stroke="none">
<path d="M290 851 l0 -361 80 0 79 0 3 141 3 140 108 -140 108 -141 105 0 105
0 -126 150 c-123 146 -125 150 -102 159 47 18 95 70 113 123 33 102 2 202 -81
253 -48 30 -49 30 -222 33 l-173 3 0 -360z m283 209 c32 -25 41 -63 26 -107
-13 -40 -55 -63 -114 -63 l-35 0 0 95 0 95 49 0 c33 0 56 -6 74 -20z"/>
<path d="M1060 941 c-82 -26 -152 -94 -171 -163 -27 -104 17 -209 111 -262 51
-29 62 -31 150 -31 110 0 152 17 213 84 98 108 66 268 -70 348 -38 22 -60 27
-127 30 -45 1 -92 -1 -106 -6z m155 -143 c74 -66 32 -188 -65 -188 -46 0 -87
30 -98 73 -19 71 28 137 98 137 26 0 47 -7 65 -22z"/>
<path d="M1600 934 c-141 -61 -184 -255 -83 -374 70 -82 173 -104 266 -56 l47
23 0 -134 0 -134 78 3 77 3 3 338 2 337 -80 0 -80 0 0 -27 0 -26 -22 21 c-47
43 -140 55 -208 26z m195 -136 c31 -28 44 -73 33 -115 -25 -97 -171 -97 -196
0 -19 71 28 137 98 137 26 0 47 -7 65 -22z"/>
<path d="M2765 931 c-80 -36 -125 -115 -125 -218 0 -72 14 -113 56 -162 71
-84 214 -95 297 -23 16 14 17 13 17 -11 0 -27 0 -27 75 -27 l75 0 0 225 0 225
-75 0 c-68 0 -75 -2 -75 -20 0 -19 -2 -18 -46 5 -58 31 -140 33 -199 6z m211
-145 c87 -87 -8 -215 -121 -164 -70 32 -72 146 -4 184 44 24 88 17 125 -20z"/>
<path d="M2082 782 c4 -136 8 -165 26 -203 32 -66 83 -92 193 -97 152 -7 232
32 259 126 5 20 10 103 10 185 l0 147 -74 0 -74 0 -4 -138 c-2 -109 -7 -143
-20 -164 -33 -50 -122 -45 -147 8 -6 15 -11 81 -11 159 l0 135 -81 0 -82 0 5
-158z"/>
<path d="M510 198 c0 -6 42 -113 47 -122 6 -8 30 45 48 104 13 44 -9 11 -26
-38 l-16 -47 -19 53 c-10 28 -22 52 -26 52 -5 0 -8 -1 -8 -2z"/>
<path d="M690 135 l0 -65 38 2 c36 1 36 1 5 5 -27 4 -33 9 -33 28 0 18 6 25
28 28 l27 4 -27 2 c-23 1 -28 6 -28 25 0 20 6 25 33 29 31 4 31 4 -5 5 l-38 2
0 -65z"/>
<path d="M853 135 c0 -38 2 -53 4 -32 2 20 2 52 0 70 -2 17 -4 1 -4 -38z"/>
<path d="M962 138 l-2 -68 43 1 42 2 -35 6 c-35 6 -35 7 -41 66 l-6 60 -1 -67z"/>
<path d="M1110 135 l0 -65 43 2 c36 1 38 2 10 5 l-33 4 0 60 c0 33 -4 59 -10
59 -6 0 -10 -28 -10 -65z"/>
<path d="M1270 135 l0 -65 38 1 c36 1 36 2 7 8 -21 4 -31 13 -33 29 -3 18 2
22 25 23 28 1 28 1 3 8 -15 4 -26 15 -28 28 -3 18 3 22 30 26 l33 4 -37 1 -38
2 0 -65z"/>
<path d="M1564 186 c-3 -7 -4 -17 -3 -22 1 -5 -3 -21 -11 -36 -19 -40 0 -59
56 -56 25 2 39 7 34 12 -5 5 -4 18 2 30 10 19 10 20 -6 7 -14 -12 -18 -12 -31
5 -8 12 -10 23 -4 29 5 5 9 17 9 27 0 21 -38 25 -46 4z m36 -5 c0 -6 -4 -13
-10 -16 -5 -3 -10 1 -10 9 0 9 5 16 10 16 6 0 10 -4 10 -9z m10 -83 c0 -15
-30 -21 -45 -8 -11 9 -12 17 -4 32 10 19 11 19 30 2 10 -9 19 -21 19 -26z"/>
<path d="M1850 136 c0 -37 4 -66 10 -66 6 0 10 11 10 25 0 18 5 25 19 25 25 0
43 24 39 52 -2 19 -10 24 -40 26 l-38 3 0 -65z m66 39 c7 -18 -12 -45 -32 -45
-9 0 -14 11 -14 30 0 23 4 30 20 30 11 0 23 -7 26 -15z"/>
<path d="M2050 199 c0 -3 -11 -33 -24 -67 -14 -34 -21 -62 -16 -62 5 0 12 9
15 20 4 13 15 20 30 20 15 0 26 -7 30 -20 3 -11 10 -20 15 -20 5 0 -2 28 -16
62 -21 55 -34 80 -34 67z m20 -66 c0 -7 -7 -13 -15 -13 -16 0 -19 9 -9 35 5
13 8 14 15 3 5 -7 9 -19 9 -25z"/>
<path d="M2180 136 c0 -37 4 -66 10 -66 6 0 10 14 10 30 0 17 4 30 10 30 5 0
16 -13 25 -30 9 -16 20 -30 26 -30 11 0 -5 35 -22 45 -7 5 -4 14 7 27 24 26 8
52 -35 56 l-31 3 0 -65z m55 29 c0 -11 -8 -21 -17 -23 -14 -3 -18 3 -18 23 0
20 4 26 18 23 9 -2 17 -12 17 -23z"/>
<path d="M2358 193 c20 -4 22 -10 22 -64 0 -33 4 -59 10 -59 6 0 10 26 10 59
0 54 2 60 23 64 12 2 -3 4 -33 4 -30 0 -45 -2 -32 -4z"/>
<path d="M2539 173 c-29 -74 -37 -103 -30 -103 5 0 11 9 14 20 7 29 53 27 60
-2 4 -12 9 -19 12 -16 6 6 -34 128 -42 128 -2 0 -8 -12 -14 -27z m27 -50 c-2
-3 -11 -3 -19 -1 -11 2 -12 9 -5 28 l10 25 9 -24 c5 -13 7 -26 5 -28z"/>
<path d="M2697 182 c-21 -23 -22 -76 -1 -96 8 -9 29 -16 45 -16 26 0 29 3 29
30 0 17 -4 30 -9 30 -4 0 -6 -11 -3 -25 3 -20 0 -25 -17 -25 -11 0 -28 12 -38
26 -15 24 -15 29 -2 53 9 15 27 29 44 32 l30 7 -31 1 c-18 1 -38 -6 -47 -17z"/>
<path d="M2860 135 l0 -65 38 2 c36 1 36 1 5 5 -27 4 -33 9 -33 28 0 18 6 25
28 28 l27 4 -27 2 c-23 1 -28 6 -28 25 0 20 6 25 33 29 31 4 31 4 -5 5 l-38 2
0 -65z"/>
</g>
</svg>
